<!--?xml version="1.0" encoding="iso-8859-1"?-->
<!-- Generator: Adobe Illustrator 22.1.0, SVG Export Plug-In . SVG Version: 6.00 Build 0)  -->
<svg version="1.1" id="_x34_" xmlns="http://www.w3.org/2000/svg" xmlns:xlink="http://www.w3.org/1999/xlink" x="0px" y="0px" viewBox="0 0 390.2 512" style="opacity: 1; width: 256px;" xml:space="preserve">
<style type="text/css">
	.st0{fill:#323740;}
	.st1{fill:#FFFFFF;}
	.st2{fill:#F5F6D5;}
	.st3{opacity:0.1;}
	.st4{fill:#040000;}
</style>
<g>
	<path class="st0" d="M371.2,0H19C8.5,0,0,8.5,0,19v430.1v0C0,483.9,28.1,512,62.9,512h327.4v-62.9v-62.9V19
		C390.2,8.5,381.7,0,371.2,0z"></path>
	<g>
		<path class="st1" d="M20.9,449.1c0,23.1,18.8,41.9,41.9,41.9h327.4v-41.9H20.9z"></path>
		<path class="st1" d="M362.8,27.4H27.4v394.3h335.4V27.4z M354.8,413.7H35.4V35.4h319.4V413.7z"></path>
	</g>
	<rect x="112.6" y="117.4" class="st2" width="165" height="64.6"></rect>
	<g class="st3">
		<path class="st4" d="M390.2,449.1v21H26.6c-3.6-6.2-5.7-13.4-5.7-21H390.2z"></path>
	</g>
</g>
</svg>
